<svg xmlns="http://www.w3.org/2000/svg" version="1.1" xmlns:xlink="http://www.w3.org/1999/xlink" xmlns:svgjs="http://svgjs.com/svgjs" width="512" height="512" x="0" y="0" viewBox="0 0 32 32" style="enable-background:new 0 0 512 512" xml:space="preserve" class=""><g><g data-name="Layer 17"><path d="M16 2a14 14 0 1 0 14 14A14 14 0 0 0 16 2zm0 26a12 12 0 1 1 12-12 12 12 0 0 1-12 12z" fill="#000000" data-original="#000000" class=""></path><path d="M22 17a1 1 0 0 0-1 1v3c0 .54-.64 1-1.4 1h-7.2c-.76 0-1.4-.46-1.4-1v-3a1 1 0 0 0-2 0v3a3.23 3.23 0 0 0 3.4 3h7.2a3.23 3.23 0 0 0 3.4-3v-3a1 1 0 0 0-1-1z" fill="#000000" data-original="#000000" class=""></path><path d="M15.29 18.71a1 1 0 0 0 1.42 0l3-3a1 1 0 0 0-1.42-1.42L17 15.59V9a1 1 0 0 0-2 0v6.59l-1.29-1.3a1 1 0 0 0-1.42 1.42z" fill="#000000" data-original="#000000" class=""></path></g></g></svg>