<svg xmlns="http://www.w3.org/2000/svg" version="1.1" xmlns:xlink="http://www.w3.org/1999/xlink" xmlns:svgjs="http://svgjs.com/svgjs" width="512" height="512" x="0" y="0" viewBox="0 0 128 128" style="enable-background:new 0 0 512 512" xml:space="preserve" class=""><g><path d="M65.266 17.25a32.994 32.994 0 0 0-32.957 32.957c0 11.476 5.353 25.081 15.911 40.439a162.68 162.68 0 0 0 15.793 19.576 1.751 1.751 0 0 0 2.506 0 162.843 162.843 0 0 0 15.792-19.576c10.558-15.358 15.912-28.963 15.912-40.439A32.994 32.994 0 0 0 65.266 17.25zm0 89.19c-5.766-6.285-29.457-33.483-29.457-56.233a29.457 29.457 0 1 1 58.914 0c0 22.75-23.688 49.948-29.457 56.233z" fill="#000000" data-original="#000000"></path><path d="M65.266 33.568A16.639 16.639 0 1 0 81.9 50.207a16.658 16.658 0 0 0-16.634-16.639zm0 29.778A13.139 13.139 0 1 1 78.4 50.207a13.154 13.154 0 0 1-13.134 13.139z" fill="#000000" data-original="#000000"></path></g></svg>